<svg width="128" height="128" viewBox="0 0 128 128" fill="none" xmlns="http://www.w3.org/2000/svg">
<path d="M46.9688 82.5625V91H27.0625V82.5625H46.9688ZM30.7812 45.5V91H20.0938V45.5H30.7812ZM44.375 63.5625V71.7188H27.0625V63.5625H44.375ZM47.0625 45.5V53.9688H27.0625V45.5H47.0625ZM51.9062 86.0625C51.9062 84.5625 52.4479 83.3125 53.5312 82.3125C54.6146 81.2917 56.0104 80.7812 57.7188 80.7812C59.4479 80.7812 60.8438 81.2917 61.9062 82.3125C62.9896 83.3125 63.5312 84.5625 63.5312 86.0625C63.5312 87.5625 62.9896 88.8229 61.9062 89.8438C60.8438 90.8438 59.4479 91.3438 57.7188 91.3438C56.0104 91.3438 54.6146 90.8438 53.5312 89.8438C52.4479 88.8229 51.9062 87.5625 51.9062 86.0625ZM83.5 91H75.1562L75.2188 82.5625H83.5C85.0625 82.5625 86.3333 82.2188 87.3125 81.5312C88.3125 80.8438 89.0521 79.7083 89.5312 78.125C90.0104 76.5208 90.25 74.3854 90.25 71.7188V64.75C90.25 62.75 90.1146 61.0625 89.8438 59.6875C89.5938 58.3125 89.1979 57.2083 88.6562 56.375C88.1146 55.5417 87.3958 54.9375 86.5 54.5625C85.6042 54.1667 84.5417 53.9688 83.3125 53.9688H75V45.5H83.3125C85.9792 45.5 88.3958 45.9375 90.5625 46.8125C92.75 47.6667 94.6354 48.9375 96.2188 50.625C97.8021 52.2917 99.0208 54.3125 99.875 56.6875C100.729 59.0625 101.156 61.7708 101.156 64.8125V71.7188C101.156 74.7396 100.729 77.4479 99.875 79.8438C99.0208 82.2188 97.8021 84.2396 96.2188 85.9062C94.6562 87.5729 92.7917 88.8438 90.625 89.7188C88.4792 90.5729 86.1042 91 83.5 91ZM81.4062 45.5V91H70.7188V45.5H81.4062ZM103.406 86.0625C103.406 84.5625 103.948 83.3125 105.031 82.3125C106.115 81.2917 107.51 80.7812 109.219 80.7812C110.948 80.7812 112.344 81.2917 113.406 82.3125C114.49 83.3125 115.031 84.5625 115.031 86.0625C115.031 87.5625 114.49 88.8229 113.406 89.8438C112.344 90.8438 110.948 91.3438 109.219 91.3438C107.51 91.3438 106.115 90.8438 105.031 89.8438C103.948 88.8229 103.406 87.5625 103.406 86.0625Z" fill="#303030"/>
</svg>
